<svg id="Layer_1" enable-background="new 0 0 512 512" height="512" viewBox="0 0 512 512" width="512" xmlns="http://www.w3.org/2000/svg"><g><path d="m384.533 512h-257.066c-70.285 0-127.467-57.182-127.467-127.467v-257.066c0-70.285 57.182-127.467 127.467-127.467h257.066c70.285 0 127.467 57.182 127.467 127.467v257.066c0 70.285-57.182 127.467-127.467 127.467z" fill="#0082f5"/><path d="m512 384.533v-257.066c0-70.285-57.182-127.467-127.467-127.467h-128.533v512h128.533c70.285 0 127.467-57.182 127.467-127.467z" fill="#0050be"/><path d="m127.467 30c-53.743 0-97.467 43.724-97.467 97.467v257.066c0 53.743 43.724 97.467 97.467 97.467h257.066c53.743 0 97.467-43.724 97.467-97.467v-257.066c0-53.743-43.724-97.467-97.467-97.467z" fill="#00b4ff"/><path d="m482 384.533v-257.066c0-53.743-43.724-97.467-97.467-97.467h-128.533v452h128.533c53.743 0 97.467-43.724 97.467-97.467z" fill="#0082f5"/><path d="m343.834 291.133h-87.834v-87.833c0-9.702-7.865-17.567-17.567-17.567-67.913 0-122.967 55.054-122.967 122.967s55.054 122.967 122.967 122.967 122.967-55.054 122.967-122.967c0-9.702-7.865-17.567-17.566-17.567z" fill="#dadcdf"/><path d="m343.834 291.133h-87.834v139.279c59.59-8.525 105.4-59.765 105.4-121.712 0-9.702-7.865-17.567-17.566-17.567z" fill="#b4bed2"/><path d="m435.927 336.557c-13.394-13.396-29.731-29.732-42.406-42.41-13.175-13.178-31.049-20.581-49.688-20.581h-52.7v-30h50.133c11.119 0 20.134-9.014 20.134-20.133s-9.014-20.133-20.134-20.133h-50.133v-8.783c0-19.403-15.731-35.133-35.134-35.133-19.348 0-35.133 15.694-35.133 35.133v114.183c0 19.391 15.74 35.133 35.133 35.133h87.833s23.25 23.25 42.406 42.409c13.728 13.72 35.968 13.72 49.687 0 13.707-13.706 13.735-35.949.002-49.685z" fill="#fffaec"/><path d="m343.833 343.833s23.25 23.25 42.406 42.409c13.728 13.72 35.968 13.72 49.687 0 13.706-13.707 13.734-35.95 0-49.686-13.394-13.396-29.731-29.732-42.406-42.41-13.175-13.178-31.049-20.581-49.688-20.581h-52.7v-30h50.133c11.119 0 20.134-9.014 20.134-20.133s-9.014-20.133-20.134-20.133h-50.133v-8.783c0-19.403-15.731-35.133-35.134-35.133v184.45z" fill="#dadcdf"/><circle cx="256" cy="119.858" fill="#fffaec" r="39.525"/><path d="m295.525 119.858c0-21.814-17.707-39.525-39.525-39.525v79.05c21.818 0 39.525-17.711 39.525-39.525z" fill="#dadcdf"/></g></svg>