<svg id="Capa_1" enable-background="new 0 0 512 512" height="512" viewBox="0 0 512 512" width="512" xmlns="http://www.w3.org/2000/svg"><g><g><g><path d="m457 497h-402c-22.091 0-40-17.909-40-40v-402c0-22.091 17.909-40 40-40h402c22.091 0 40 17.909 40 40v402c0 22.091-17.909 40-40 40z" fill="#f1f1f4"/><path d="m457 15h-201v482h201c22.091 0 40-17.909 40-40v-402c0-22.091-17.909-40-40-40z" fill="#e2dff4"/><path d="m457 512h-402c-30.327 0-55-24.673-55-55v-402c0-30.327 24.673-55 55-55h402c30.327 0 55 24.673 55 55v402c0 30.327-24.673 55-55 55zm-402-482c-13.785 0-25 11.215-25 25v402c0 13.785 11.215 25 25 25h402c13.785 0 25-11.215 25-25v-402c0-13.785-11.215-25-25-25z" fill="#6e75e2"/><path d="m457 0h-201v30h201c13.785 0 25 11.215 25 25v402c0 13.785-11.215 25-25 25h-201v30h201c30.327 0 55-24.673 55-55v-402c0-30.327-24.673-55-55-55z" fill="#00429b"/></g></g><g><g><path d="m391 166h-5.282c-15.448 0-27.2 13.872-24.66 29.11 2.009 12.055 12.439 20.89 24.66 20.89h5.282c8.284 0 15-6.716 15-15v-20c0-8.284-6.716-15-15-15z" fill="#ffb454"/></g><path d="m376 421c-41.355 0-75-33.645-75-75s33.645-75 75-75 75 33.645 75 75-33.645 75-75 75zm0-120c-24.813 0-45 20.187-45 45s20.187 45 45 45 45-20.187 45-45-20.187-45-45-45z" fill="#424c52"/><g><path d="m361.204 348.466c1.223 7.337 7.578 12.537 14.778 12.537.942 0 1.899-.089 2.859-.274 8.064-1.552 13.232-9.532 11.882-17.632l-17.016-102.097-6.204-8.159c-7.813-10.276-24.21-4.751-24.21 8.159z" fill="#d0004f"/><path d="m354.974 128.602c-3.616-21.699-22.39-37.602-44.387-37.602h-14.163c-8.077 0-15.027 6.207-15.407 14.275-.406 8.614 6.458 15.725 14.983 15.725h14.586c7.333 0 13.59 5.301 14.796 12.534l1.244 7.466 16.961 8.365c6.199 3.057 13.453-1.454 13.453-8.365z" fill="#424c52"/></g><path d="m136 421c-41.355 0-75-33.645-75-75s33.645-75 75-75 75 33.645 75 75-33.645 75-75 75zm0-120c-24.813 0-45 20.187-45 45s20.187 45 45 45 45-20.187 45-45-20.187-45-45-45z" fill="#5f6c75"/><path d="m230.605 361h-84.605c-13.807 0-25-11.193-25-25 0-13.807 11.193-25 25-25h76.25c6.252 0 11.85 3.878 14.045 9.733l18.75 20c2.151 5.737.628 12.333-4.165 16.561-2.803 2.472-16.538 3.706-20.275 3.706z" fill="#ff7038"/><path d="m328.329 217.456c-2.802-4.043-7.409-6.456-12.329-6.456h-120c-4.92 0-9.527 2.413-12.329 6.456s-3.443 9.205-1.716 13.811l48.65 129.733h40.395c6.252 0 11.85-3.878 14.045-9.733l45-120c1.727-4.606 1.086-9.767-1.716-13.811z" fill="#5f6c75"/><path d="m328.329 217.456c-2.802-4.043-7.409-6.456-12.329-6.456h-60v150h15c6.252 0 11.85-3.878 14.045-9.733l45-120c1.727-4.606 1.086-9.767-1.716-13.811z" fill="#424c52"/><path d="m266.004 164.823c-3.179-2.846-7.419-4.203-11.66-3.731l-50.245 5.583c-30.271 3.363-53.099 28.868-53.099 59.325h120v-50c0-4.267-1.817-8.332-4.996-11.177z" fill="#5f6c75"/><path d="m76.014 257.238c-5.172 0-10.203-2.677-12.986-7.471-4.16-7.165-1.723-16.344 5.441-20.504 20.581-11.948 43.933-18.263 67.531-18.263h130c8.284 0 15 6.716 15 15s-21.716 15-30 15h-115c-18.314 0-36.458 4.913-52.469 14.208-2.37 1.376-4.961 2.03-7.517 2.03z" fill="#ff7038"/><path d="m357.04 141h-81.04c-19.33 0-35 15.67-35 35v65h114.66 18.047z" fill="#ff7038"/><g><path d="m373.707 241-16.667-100h-81.04c-7.439 0-14.33 2.327-20 6.284v93.716h99.66z" fill="#d0004f"/></g></g></g></svg>