<svg id="Capa_1" enable-background="new 0 0 510 510" height="512" viewBox="0 0 510 510" width="512" xmlns="http://www.w3.org/2000/svg"><g><path d="m510 45v420c0 24.81-20.19 45-45 45h-420c-24.81 0-45-20.19-45-45v-420c0-24.81 20.19-45 45-45h420c24.81 0 45 20.19 45 45z" fill="#5a69e5"/><path d="m510 45v420c0 24.81-20.19 45-45 45h-210v-510h210c24.81 0 45 20.19 45 45z" fill="#0051be"/><path d="m280.3 64h-97.67c-8.28 0-15 6.72-15 15 0 367.14.37 351.43.37 352 0 8.28 6.72 15 15 15h35.65c8.28 0 14.99-6.71 15-14.98l-.07-138.99c10.195-.01 33.824-.05 46.72-.05 62.507 0 115.93-50.525 115.93-113.99 0-63.504-53.459-113.99-115.93-113.99zm2.11 165.84c-10.581 0-32.522.16-35.07.16-8.638 0-15.05-6.938-15.09-14.91 0-.26-.25-72.04-.25-72.04-.021-8.297 6.693-15.05 15-15.05h35.41c28.45 0 51.59 22.84 51.59 50.92s-23.14 50.92-51.59 50.92z" fill="#ecf7fe"/><path d="m396.23 177.99c0 63.504-53.459 113.99-115.93 113.99-2.45 0-14.2.01-25.3.02v-62.04c8.27-.05 21.12-.12 27.41-.12 28.45 0 51.59-22.84 51.59-50.92s-23.14-50.92-51.59-50.92h-27.41v-64h25.3c62.507 0 115.93 50.525 115.93 113.99z" fill="#dce7f5"/></g></svg>